<svg xmlns="http://www.w3.org/2000/svg" width="1024" height="1024" fill="none" viewBox="0 0 1024 1024"><rect width="1024" height="1024" fill="#5636D3"/><path fill="#FF872C" fill-rule="evenodd" d="M655.841 413.99C657.806 416.782 659.495 419.791 660.874 422.985C742.161 444.915 802.003 517.489 802.003 603.402C802.003 706.63 715.619 790.611 609.439 790.611C554.003 790.611 503.975 767.713 468.807 731.144H335.315C306.584 731.144 283.209 708.419 283.209 680.488C283.209 664.446 290.928 650.13 302.936 640.843C290.928 631.555 283.209 617.241 283.209 601.198C283.209 585.157 290.928 570.843 302.936 561.555C290.928 552.268 283.209 537.952 283.209 521.91C283.209 505.869 290.928 491.555 302.936 482.266C290.928 472.978 283.209 458.664 283.209 442.623C283.209 414.691 306.584 391.966 335.315 391.966H364.857C359.089 383.814 355.704 373.953 355.704 363.334C355.704 352.715 359.09 342.853 364.857 334.702H274.147C245.417 334.702 222.042 311.977 222.042 284.045C222.042 256.114 245.417 233.389 274.147 233.389H551.668C580.398 233.389 603.773 256.114 603.773 284.045C603.773 294.665 600.387 304.526 594.62 312.677H685.331C714.061 312.677 737.436 335.402 737.436 363.334C737.436 391.265 714.061 413.99 685.331 413.99H655.841ZM714.782 363.334C714.782 347.547 701.571 334.702 685.331 334.702H407.81C391.57 334.702 378.359 347.547 378.359 363.334C378.359 379.121 391.57 391.966 407.81 391.966H612.835H685.331C701.571 391.966 714.782 379.121 714.782 363.334ZM244.696 284.045C244.696 299.833 257.907 312.677 274.147 312.677H551.668C567.908 312.677 581.119 299.833 581.119 284.045C581.119 268.258 567.908 255.413 551.668 255.413H274.147C257.907 255.413 244.696 268.258 244.696 284.045ZM612.835 413.99H335.315C319.076 413.99 305.864 426.835 305.864 442.623C305.864 458.41 319.076 471.254 335.315 471.254H473.172C508.052 437.258 556.262 416.194 609.439 416.194C614.911 416.194 620.328 416.43 625.687 416.867C621.767 415.02 617.397 413.99 612.835 413.99ZM453.817 493.279H335.315C319.075 493.279 305.864 506.123 305.864 521.91C305.864 537.699 319.075 550.542 335.315 550.542H424.702C431.015 529.723 440.958 510.405 453.817 493.279ZM419.5 572.567H335.315C319.075 572.567 305.864 585.411 305.864 601.198C305.864 616.987 319.075 629.831 335.315 629.831H418.802C417.54 621.194 416.873 612.374 416.873 603.402C416.873 592.9 417.782 582.602 419.5 572.567ZM305.864 680.488C305.864 696.275 319.075 709.119 335.315 709.119H450.604C438.427 691.881 429.141 672.573 423.427 651.855H335.315C319.075 651.855 305.864 664.699 305.864 680.488ZM439.527 603.402C439.527 694.485 515.75 768.586 609.439 768.586C703.126 768.586 779.349 694.485 779.349 603.402C779.349 512.32 703.126 438.219 609.439 438.219C515.75 438.219 439.527 512.32 439.527 603.402ZM580.544 565.759C580.544 579.14 593.481 590.026 609.383 590.026C639.742 590.026 664.442 612.346 664.442 639.783C664.442 663.137 646.542 682.772 622.493 688.102V693.607C622.493 700.644 616.622 706.353 609.383 706.353C602.146 706.353 596.275 700.644 596.275 693.607V688.102C572.225 682.772 554.326 663.137 554.326 639.783C554.326 632.745 560.197 627.039 567.436 627.039C574.675 627.039 580.544 632.745 580.544 639.783C580.544 653.164 593.481 664.05 609.383 664.05C625.287 664.05 638.223 653.164 638.223 639.783C638.223 626.401 625.287 615.514 609.383 615.514C579.024 615.514 554.326 593.194 554.326 565.759C554.326 542.406 572.225 522.769 596.275 517.439V510.812C596.275 503.774 602.146 498.068 609.383 498.068C616.622 498.068 622.493 503.774 622.493 510.812V517.439C646.542 522.769 664.442 542.406 664.442 565.759C664.442 572.796 658.571 578.504 651.332 578.504C644.093 578.504 638.223 572.796 638.223 565.759C638.223 552.377 625.287 541.492 609.383 541.492C593.481 541.492 580.544 552.377 580.544 565.759Z" clip-rule="evenodd"/><path fill="#FF872C" d="M660.874 422.985L657.111 424.61L657.896 426.425L659.807 426.94L660.874 422.985ZM655.841 413.99V409.892H647.946L652.491 416.35L655.841 413.99ZM468.808 731.144L471.761 728.304L470.553 727.047H468.808V731.144ZM302.936 640.843L305.443 644.085L309.633 640.843L305.443 637.603L302.936 640.843ZM302.936 561.555L305.443 564.795L309.633 561.555L305.443 558.313L302.936 561.555ZM302.936 482.266L305.443 485.507L309.633 482.266L305.443 479.026L302.936 482.266ZM364.857 391.966V396.063H372.775L368.201 389.6L364.857 391.966ZM364.857 334.702L368.202 337.068L372.774 330.605H364.857V334.702ZM594.62 312.677L591.277 310.311L586.703 316.775H594.62V312.677ZM473.172 471.254V475.351H474.837L476.03 474.188L473.172 471.254ZM625.687 416.868L625.353 420.95L627.432 413.16L625.687 416.868ZM453.817 493.279L457.093 495.739L462.016 489.182H453.817V493.279ZM424.702 550.542V554.639H427.74L428.622 551.732L424.702 550.542ZM419.5 572.567L423.538 573.258L424.358 568.47H419.5V572.567ZM418.802 629.831V633.928H423.54L422.855 629.24L418.802 629.831ZM450.604 709.119V713.216H458.514L453.951 706.756L450.604 709.119ZM423.427 651.855L427.376 650.766L426.546 647.757H423.427V651.855ZM622.493 688.102L621.606 684.101L618.395 684.813V688.102H622.493ZM596.275 688.102H600.373V684.813L597.162 684.101L596.275 688.102ZM596.275 517.44L597.162 521.44L600.373 520.729V517.44H596.275ZM622.493 517.44H618.395V520.729L621.606 521.44L622.493 517.44ZM664.635 421.361C663.145 417.91 661.318 414.653 659.191 411.631L652.491 416.35C654.294 418.91 655.844 421.674 657.111 424.61L664.635 421.361ZM806.101 603.403C806.101 515.516 744.896 441.41 661.941 419.029L659.807 426.94C739.424 448.421 797.906 519.46 797.906 603.403H806.101ZM609.439 794.708C717.771 794.708 806.101 709.001 806.101 603.403H797.906C797.906 704.258 713.466 786.514 609.439 786.514V794.708ZM465.854 733.984C501.772 771.333 552.858 794.708 609.439 794.708V786.514C555.149 786.514 506.177 764.092 471.761 728.304L465.854 733.984ZM335.315 735.241H468.808V727.047H335.315V735.241ZM279.112 680.488C279.112 710.789 304.431 735.241 335.315 735.241V727.047C308.738 727.047 287.306 706.048 287.306 680.488H279.112ZM300.429 637.603C287.488 647.612 279.112 663.093 279.112 680.488H287.306C287.306 665.8 294.368 652.65 305.443 644.085L300.429 637.603ZM279.112 601.198C279.112 618.595 287.488 634.074 300.429 644.085L305.443 637.603C294.368 629.036 287.306 615.886 287.306 601.198H279.112ZM300.429 558.313C287.488 568.324 279.112 583.803 279.112 601.198H287.306C287.306 586.512 294.368 573.362 305.443 564.795L300.429 558.313ZM279.112 521.91C279.112 539.306 287.488 554.787 300.429 564.795L305.443 558.313C294.368 549.749 287.306 536.598 287.306 521.91H279.112ZM300.429 479.026C287.488 489.034 279.112 504.515 279.112 521.91H287.306C287.306 507.223 294.368 494.074 305.443 485.507L300.429 479.026ZM279.112 442.623C279.112 460.018 287.488 475.497 300.429 485.507L305.443 479.026C294.368 470.459 287.306 457.31 287.306 442.623H279.112ZM335.315 387.869C304.431 387.869 279.112 412.32 279.112 442.623H287.306C287.306 417.061 308.738 396.063 335.315 396.063V387.869ZM364.857 387.869H335.315V396.063H364.857V387.869ZM351.607 363.334C351.607 374.84 355.278 385.522 361.512 394.333L368.201 389.6C362.9 382.107 359.802 373.066 359.802 363.334H351.607ZM361.512 332.336C355.279 341.146 351.607 351.827 351.607 363.334H359.802C359.802 353.602 362.901 344.561 368.202 337.068L361.512 332.336ZM274.147 338.799H364.857V330.605H274.147V338.799ZM217.944 284.045C217.944 314.348 243.264 338.799 274.147 338.799V330.605C247.57 330.605 226.139 309.606 226.139 284.045H217.944ZM274.147 229.292C243.264 229.292 217.944 253.743 217.944 284.045H226.139C226.139 258.485 247.57 237.486 274.147 237.486V229.292ZM551.668 229.292H274.147V237.486H551.668V229.292ZM607.871 284.045C607.871 253.743 582.551 229.292 551.668 229.292V237.486C578.244 237.486 599.676 258.485 599.676 284.045H607.871ZM597.965 315.044C604.198 306.234 607.871 295.552 607.871 284.045H599.676C599.676 293.777 596.577 302.818 591.277 310.311L597.965 315.044ZM685.331 308.58H594.62V316.775H685.331V308.58ZM741.533 363.334C741.533 333.031 716.214 308.58 685.331 308.58V316.775C711.907 316.775 733.339 337.773 733.339 363.334H741.533ZM685.331 418.087C716.214 418.087 741.533 393.636 741.533 363.334H733.339C733.339 388.895 711.907 409.892 685.331 409.892V418.087ZM655.841 418.087H685.331V409.892H655.841V418.087ZM685.331 338.799C699.417 338.799 710.685 349.918 710.685 363.334H718.879C718.879 345.176 703.724 330.605 685.331 330.605V338.799ZM407.81 338.799H685.331V330.605H407.81V338.799ZM382.456 363.334C382.456 349.918 393.723 338.799 407.81 338.799V330.605C389.416 330.605 374.262 345.176 374.262 363.334H382.456ZM407.81 387.869C393.723 387.869 382.456 376.75 382.456 363.334H374.262C374.262 381.492 389.416 396.063 407.81 396.063V387.869ZM612.835 387.869H407.81V396.063H612.835V387.869ZM685.331 387.869H612.835V396.063H685.331V387.869ZM710.685 363.334C710.685 376.75 699.417 387.869 685.331 387.869V396.063C703.724 396.063 718.879 381.492 718.879 363.334H710.685ZM274.147 308.58C260.061 308.58 248.793 297.462 248.793 284.045H240.599C240.599 302.204 255.754 316.775 274.147 316.775V308.58ZM551.668 308.58H274.147V316.775H551.668V308.58ZM577.022 284.045C577.022 297.462 565.754 308.58 551.668 308.58V316.775C570.061 316.775 585.216 302.204 585.216 284.045H577.022ZM551.668 259.511C565.754 259.511 577.022 270.629 577.022 284.045H585.216C585.216 265.887 570.061 251.316 551.668 251.316V259.511ZM274.147 259.511H551.668V251.316H274.147V259.511ZM248.793 284.045C248.793 270.629 260.061 259.511 274.147 259.511V251.316C255.754 251.316 240.599 265.887 240.599 284.045H248.793ZM335.315 418.087H612.835V409.892H335.315V418.087ZM309.961 442.623C309.961 429.207 321.229 418.087 335.315 418.087V409.892C316.923 409.892 301.767 424.464 301.767 442.623H309.961ZM335.315 467.157C321.229 467.157 309.961 456.039 309.961 442.623H301.767C301.767 460.78 316.923 475.351 335.315 475.351V467.157ZM473.172 467.157H335.315V475.351H473.172V467.157ZM609.439 412.097C555.164 412.097 505.937 433.601 470.312 468.32L476.03 474.188C510.168 440.918 557.36 420.291 609.439 420.291V412.097ZM626.02 412.783C620.557 412.338 615.029 412.097 609.439 412.097V420.291C614.793 420.291 620.1 420.522 625.353 420.95L626.02 412.783ZM612.835 418.087C616.778 418.087 620.552 418.978 623.94 420.573L627.432 413.16C622.983 411.064 618.019 409.892 612.835 409.892V418.087ZM335.315 497.376H453.817V489.182H335.315V497.376ZM309.961 521.91C309.961 508.495 321.228 497.376 335.315 497.376V489.182C316.922 489.182 301.767 503.753 301.767 521.91H309.961ZM335.315 546.445C321.228 546.445 309.961 535.328 309.961 521.91H301.767C301.767 540.069 316.922 554.639 335.315 554.639V546.445ZM424.702 546.445H335.315V554.639H424.702V546.445ZM450.539 490.819C437.402 508.318 427.237 528.064 420.78 549.354L428.622 551.732C434.794 531.383 444.513 512.493 457.093 495.739L450.539 490.819ZM335.315 576.664H419.5V568.47H335.315V576.664ZM309.961 601.198C309.961 587.782 321.228 576.664 335.315 576.664V568.47C316.922 568.47 301.767 583.039 301.767 601.198H309.961ZM335.315 625.734C321.228 625.734 309.961 614.616 309.961 601.198H301.767C301.767 619.359 316.922 633.928 335.315 633.928V625.734ZM418.802 625.734H335.315V633.928H418.802V625.734ZM412.776 603.403C412.776 612.577 413.459 621.596 414.747 630.423L422.855 629.24C421.622 620.793 420.97 612.169 420.97 603.403H412.776ZM415.462 571.875C413.705 582.135 412.776 592.663 412.776 603.403H420.97C420.97 593.137 421.858 583.071 423.538 573.258L415.462 571.875ZM335.315 705.022C321.228 705.022 309.961 693.905 309.961 680.488H301.767C301.767 698.647 316.922 713.216 335.315 713.216V705.022ZM450.604 705.022H335.315V713.216H450.604V705.022ZM419.477 652.945C425.321 674.13 434.815 693.869 447.258 711.482L453.951 706.756C442.04 689.893 432.962 671.015 427.376 650.766L419.477 652.945ZM335.315 655.952H423.427V647.757H335.315V655.952ZM309.961 680.488C309.961 667.07 321.228 655.952 335.315 655.952V647.757C316.922 647.757 301.767 662.329 301.767 680.488H309.961ZM609.439 764.489C517.902 764.489 443.624 692.114 443.624 603.403H435.43C435.43 696.857 513.597 772.683 609.439 772.683V764.489ZM775.252 603.403C775.252 692.114 700.974 764.489 609.439 764.489V772.683C705.28 772.683 783.446 696.857 783.446 603.403H775.252ZM609.439 442.316C700.974 442.316 775.252 514.691 775.252 603.403H783.446C783.446 509.948 705.28 434.122 609.439 434.122V442.316ZM443.624 603.403C443.624 514.691 517.902 442.316 609.439 442.316V434.122C513.597 434.122 435.43 509.948 435.43 603.403H443.624ZM609.383 585.929C595.053 585.929 584.641 576.243 584.641 565.759H576.446C576.446 582.036 591.909 594.123 609.383 594.123V585.929ZM668.539 639.783C668.539 609.702 641.605 585.929 609.383 585.929V594.123C637.88 594.123 660.344 614.99 660.344 639.783H668.539ZM623.379 692.103C648.984 686.429 668.539 665.367 668.539 639.783H660.344C660.344 660.905 644.101 679.118 621.606 684.101L623.379 692.103ZM626.59 693.607V688.102H618.395V693.607H626.59ZM609.383 710.45C618.776 710.45 626.59 703.016 626.59 693.607H618.395C618.395 698.275 614.469 702.255 609.383 702.255V710.45ZM592.178 693.607C592.178 703.016 599.992 710.45 609.383 710.45V702.255C604.298 702.255 600.373 698.275 600.373 693.607H592.178ZM592.178 688.102V693.607H600.373V688.102H592.178ZM550.229 639.783C550.229 665.367 569.784 686.429 595.389 692.103L597.162 684.101C574.667 679.118 558.424 660.905 558.424 639.783H550.229ZM567.436 622.941C558.043 622.941 550.229 630.374 550.229 639.783H558.424C558.424 635.115 562.35 631.136 567.436 631.136V622.941ZM584.641 639.783C584.641 630.374 576.827 622.941 567.436 622.941V631.136C572.521 631.136 576.446 635.115 576.446 639.783H584.641ZM609.383 659.952C595.053 659.952 584.641 650.267 584.641 639.783H576.446C576.446 656.06 591.909 668.147 609.383 668.147V659.952ZM634.126 639.783C634.126 650.267 623.715 659.952 609.383 659.952V668.147C626.859 668.147 642.32 656.06 642.32 639.783H634.126ZM609.383 619.611C623.715 619.611 634.126 629.297 634.126 639.783H642.32C642.32 623.504 626.859 611.417 609.383 611.417V619.611ZM550.229 565.759C550.229 595.837 577.163 619.611 609.383 619.611V611.417C580.888 611.417 558.424 590.55 558.424 565.759H550.229ZM595.389 513.439C569.784 519.115 550.229 540.174 550.229 565.759H558.424C558.424 544.639 574.667 526.426 597.162 521.44L595.389 513.439ZM592.178 510.812V517.44H600.373V510.812H592.178ZM609.383 493.971C599.992 493.971 592.178 501.403 592.178 510.812H600.373C600.373 506.144 604.298 502.165 609.383 502.165V493.971ZM626.59 510.812C626.59 501.403 618.776 493.971 609.383 493.971V502.165C614.469 502.165 618.395 506.144 618.395 510.812H626.59ZM626.59 517.44V510.812H618.395V517.44H626.59ZM668.539 565.759C668.539 540.174 648.984 519.115 623.379 513.439L621.606 521.44C644.101 526.426 660.344 544.639 660.344 565.759H668.539ZM651.332 582.602C660.725 582.602 668.539 575.168 668.539 565.759H660.344C660.344 570.426 656.418 574.407 651.332 574.407V582.602ZM634.126 565.759C634.126 575.168 641.94 582.602 651.332 582.602V574.407C646.247 574.407 642.32 570.426 642.32 565.759H634.126ZM609.383 545.589C623.715 545.589 634.126 555.275 634.126 565.759H642.32C642.32 549.481 626.859 537.395 609.383 537.395V545.589ZM584.641 565.759C584.641 555.275 595.053 545.589 609.383 545.589V537.395C591.909 537.395 576.446 549.481 576.446 565.759H584.641Z"/></svg>