<svg width="1284" height="2778" viewBox="0 0 1284 2778" fill="none" xmlns="http://www.w3.org/2000/svg">
<path fill-rule="evenodd" clip-rule="evenodd" d="M699.536 1349.8C700.322 1350.91 700.998 1352.12 701.55 1353.39C734.064 1362.17 758.001 1391.2 758.001 1425.56C758.001 1466.85 723.448 1500.44 680.976 1500.44C658.801 1500.44 638.79 1491.28 624.723 1476.66H571.326C559.834 1476.66 550.484 1467.57 550.484 1456.39C550.484 1449.98 553.571 1444.25 558.374 1440.54C553.571 1436.82 550.484 1431.1 550.484 1424.68C550.484 1418.26 553.571 1412.54 558.374 1408.82C553.571 1405.11 550.484 1399.38 550.484 1392.96C550.484 1386.55 553.571 1380.82 558.374 1377.11C553.571 1373.39 550.484 1367.67 550.484 1361.25C550.484 1350.08 559.834 1340.99 571.326 1340.99H583.143C580.836 1337.73 579.482 1333.78 579.482 1329.53C579.482 1325.29 580.836 1321.34 583.143 1318.08H546.859C535.367 1318.08 526.017 1308.99 526.017 1297.82C526.017 1286.65 535.367 1277.56 546.859 1277.56H657.867C669.359 1277.56 678.709 1286.65 678.709 1297.82C678.709 1302.07 677.355 1306.01 675.048 1309.27H711.332C722.824 1309.27 732.174 1318.36 732.174 1329.53C732.174 1340.71 722.824 1349.8 711.332 1349.8H699.536ZM723.113 1329.53C723.113 1323.22 717.828 1318.08 711.332 1318.08H600.324C593.828 1318.08 588.544 1323.22 588.544 1329.53C588.544 1335.85 593.828 1340.99 600.324 1340.99H682.334H711.332C717.828 1340.99 723.113 1335.85 723.113 1329.53ZM535.078 1297.82C535.078 1304.13 540.363 1309.27 546.859 1309.27H657.867C664.363 1309.27 669.648 1304.13 669.648 1297.82C669.648 1291.5 664.363 1286.37 657.867 1286.37H546.859C540.363 1286.37 535.078 1291.5 535.078 1297.82ZM682.334 1349.8H571.326C564.83 1349.8 559.546 1354.93 559.546 1361.25C559.546 1367.56 564.83 1372.7 571.326 1372.7H626.469C640.421 1359.1 659.705 1350.68 680.976 1350.68C683.164 1350.68 685.331 1350.77 687.475 1350.95C685.907 1350.21 684.159 1349.8 682.334 1349.8ZM618.727 1381.51H571.326C564.83 1381.51 559.546 1386.65 559.546 1392.96C559.546 1399.28 564.83 1404.42 571.326 1404.42H607.081C609.606 1396.09 613.583 1388.36 618.727 1381.51ZM605 1413.23H571.326C564.83 1413.23 559.546 1418.36 559.546 1424.68C559.546 1430.99 564.83 1436.13 571.326 1436.13H604.721C604.216 1432.68 603.949 1429.15 603.949 1425.56C603.949 1421.36 604.313 1417.24 605 1413.23ZM559.546 1456.39C559.546 1462.71 564.83 1467.85 571.326 1467.85H617.442C612.571 1460.95 608.857 1453.23 606.571 1444.94H571.326C564.83 1444.94 559.546 1450.08 559.546 1456.39ZM613.011 1425.56C613.011 1461.99 643.5 1491.63 680.976 1491.63C718.45 1491.63 748.94 1461.99 748.94 1425.56C748.94 1389.13 718.45 1359.49 680.976 1359.49C643.5 1359.49 613.011 1389.13 613.011 1425.56ZM669.417 1410.5C669.417 1415.86 674.592 1420.21 680.953 1420.21C693.097 1420.21 702.977 1429.14 702.977 1440.11C702.977 1449.45 695.817 1457.31 686.197 1459.44V1461.64C686.197 1464.46 683.849 1466.74 680.953 1466.74C678.058 1466.74 675.71 1464.46 675.71 1461.64V1459.44C666.09 1457.31 658.931 1449.45 658.931 1440.11C658.931 1437.3 661.279 1435.02 664.174 1435.02C667.07 1435.02 669.417 1437.3 669.417 1440.11C669.417 1445.47 674.592 1449.82 680.953 1449.82C687.315 1449.82 692.489 1445.47 692.489 1440.11C692.489 1434.76 687.315 1430.41 680.953 1430.41C668.81 1430.41 658.931 1421.48 658.931 1410.5C658.931 1401.16 666.09 1393.31 675.71 1391.18V1388.52C675.71 1385.71 678.058 1383.43 680.953 1383.43C683.849 1383.43 686.197 1385.71 686.197 1388.52V1391.18C695.817 1393.31 702.977 1401.16 702.977 1410.5C702.977 1413.32 700.628 1415.6 697.733 1415.6C694.837 1415.6 692.489 1413.32 692.489 1410.5C692.489 1405.15 687.315 1400.8 680.953 1400.8C674.592 1400.8 669.417 1405.15 669.417 1410.5Z" fill="#FF872C"/>
<path d="M701.55 1353.39L700.044 1354.04L700.358 1354.77L701.123 1354.98L701.55 1353.39ZM699.536 1349.8V1348.16H696.379L698.196 1350.74L699.536 1349.8ZM624.723 1476.66L625.904 1475.52L625.421 1475.02H624.723V1476.66ZM558.374 1440.54L559.377 1441.83L561.053 1440.54L559.377 1439.24L558.374 1440.54ZM558.374 1408.82L559.377 1410.12L561.053 1408.82L559.377 1407.53L558.374 1408.82ZM558.374 1377.11L559.377 1378.4L561.053 1377.11L559.377 1375.81L558.374 1377.11ZM583.143 1340.99V1342.63H586.31L584.481 1340.04L583.143 1340.99ZM583.143 1318.08L584.481 1319.03L586.31 1316.44H583.143V1318.08ZM675.048 1309.27L673.711 1308.32L671.881 1310.91H675.048V1309.27ZM626.469 1372.7V1374.34H627.135L627.612 1373.87L626.469 1372.7ZM687.475 1350.95L687.341 1352.58L688.173 1349.46L687.475 1350.95ZM618.727 1381.51L620.037 1382.5L622.006 1379.87H618.727V1381.51ZM607.081 1404.42V1406.06H608.296L608.649 1404.89L607.081 1404.42ZM605 1413.23L606.615 1413.5L606.943 1411.59H605V1413.23ZM604.721 1436.13V1437.77H606.616L606.342 1435.9L604.721 1436.13ZM617.442 1467.85V1469.49H620.605L618.78 1466.9L617.442 1467.85ZM606.571 1444.94L608.151 1444.51L607.818 1443.3H606.571V1444.94ZM686.197 1459.44L685.842 1457.84L684.558 1458.13V1459.44H686.197ZM675.71 1459.44H677.349V1458.13L676.065 1457.84L675.71 1459.44ZM675.71 1391.18L676.065 1392.78L677.349 1392.49V1391.18H675.71ZM686.197 1391.18H684.558V1392.49L685.842 1392.78L686.197 1391.18ZM703.054 1352.74C702.458 1351.36 701.727 1350.06 700.876 1348.85L698.196 1350.74C698.918 1351.76 699.538 1352.87 700.044 1354.04L703.054 1352.74ZM759.64 1425.56C759.64 1390.41 735.159 1360.76 701.976 1351.81L701.123 1354.98C732.97 1363.57 756.363 1391.98 756.363 1425.56H759.64ZM680.976 1502.08C724.308 1502.08 759.64 1467.8 759.64 1425.56H756.363C756.363 1465.9 722.586 1498.81 680.976 1498.81V1502.08ZM623.542 1477.79C637.909 1492.73 658.343 1502.08 680.976 1502.08V1498.81C659.26 1498.81 639.671 1489.84 625.904 1475.52L623.542 1477.79ZM571.326 1478.3H624.723V1475.02H571.326V1478.3ZM548.845 1456.4C548.845 1468.52 558.973 1478.3 571.326 1478.3V1475.02C560.695 1475.02 552.123 1466.62 552.123 1456.4H548.845ZM557.372 1439.24C552.195 1443.24 548.845 1449.44 548.845 1456.4H552.123C552.123 1450.52 554.947 1445.26 559.377 1441.83L557.372 1439.24ZM548.845 1424.68C548.845 1431.64 552.195 1437.83 557.372 1441.83L559.377 1439.24C554.947 1435.81 552.123 1430.55 552.123 1424.68H548.845ZM557.372 1407.53C552.195 1411.53 548.845 1417.72 548.845 1424.68H552.123C552.123 1418.8 554.947 1413.54 559.377 1410.12L557.372 1407.53ZM548.845 1392.96C548.845 1399.92 552.195 1406.11 557.372 1410.12L559.377 1407.53C554.947 1404.1 552.123 1398.84 552.123 1392.96H548.845ZM557.372 1375.81C552.195 1379.81 548.845 1386.01 548.845 1392.96H552.123C552.123 1387.09 554.947 1381.83 559.377 1378.4L557.372 1375.81ZM548.845 1361.25C548.845 1368.21 552.195 1374.4 557.372 1378.4L559.377 1375.81C554.947 1372.38 552.123 1367.12 552.123 1361.25H548.845ZM571.326 1339.35C558.973 1339.35 548.845 1349.13 548.845 1361.25H552.123C552.123 1351.02 560.695 1342.63 571.326 1342.63V1339.35ZM583.143 1339.35H571.326V1342.63H583.143V1339.35ZM577.843 1329.53C577.843 1334.14 579.311 1338.41 581.805 1341.93L584.481 1340.04C582.36 1337.04 581.121 1333.43 581.121 1329.53H577.843ZM581.805 1317.13C579.312 1320.66 577.843 1324.93 577.843 1329.53H581.121C581.121 1325.64 582.36 1322.02 584.481 1319.03L581.805 1317.13ZM546.859 1319.72H583.143V1316.44H546.859V1319.72ZM524.378 1297.82C524.378 1309.94 534.505 1319.72 546.859 1319.72V1316.44C536.228 1316.44 527.656 1308.04 527.656 1297.82H524.378ZM546.859 1275.92C534.505 1275.92 524.378 1285.7 524.378 1297.82H527.656C527.656 1287.59 536.228 1279.19 546.859 1279.19V1275.92ZM657.867 1275.92H546.859V1279.19H657.867V1275.92ZM680.348 1297.82C680.348 1285.7 670.221 1275.92 657.867 1275.92V1279.19C668.498 1279.19 677.07 1287.59 677.07 1297.82H680.348ZM676.386 1310.22C678.879 1306.69 680.348 1302.42 680.348 1297.82H677.07C677.07 1301.71 675.831 1305.33 673.711 1308.32L676.386 1310.22ZM711.332 1307.63H675.048V1310.91H711.332V1307.63ZM733.813 1329.53C733.813 1317.41 723.686 1307.63 711.332 1307.63V1310.91C721.963 1310.91 730.536 1319.31 730.536 1329.53H733.813ZM711.332 1351.43C723.686 1351.43 733.813 1341.65 733.813 1329.53H730.536C730.536 1339.76 721.963 1348.16 711.332 1348.16V1351.43ZM699.536 1351.43H711.332V1348.16H699.536V1351.43ZM711.332 1319.72C716.967 1319.72 721.474 1324.17 721.474 1329.53H724.752C724.752 1322.27 718.69 1316.44 711.332 1316.44V1319.72ZM600.324 1319.72H711.332V1316.44H600.324V1319.72ZM590.182 1329.53C590.182 1324.17 594.689 1319.72 600.324 1319.72V1316.44C592.967 1316.44 586.905 1322.27 586.905 1329.53H590.182ZM600.324 1339.35C594.689 1339.35 590.182 1334.9 590.182 1329.53H586.905C586.905 1336.8 592.967 1342.63 600.324 1342.63V1339.35ZM682.334 1339.35H600.324V1342.63H682.334V1339.35ZM711.332 1339.35H682.334V1342.63H711.332V1339.35ZM721.474 1329.53C721.474 1334.9 716.967 1339.35 711.332 1339.35V1342.63C718.69 1342.63 724.752 1336.8 724.752 1329.53H721.474ZM546.859 1307.63C541.224 1307.63 536.717 1303.18 536.717 1297.82H533.44C533.44 1305.08 539.502 1310.91 546.859 1310.91V1307.63ZM657.867 1307.63H546.859V1310.91H657.867V1307.63ZM668.009 1297.82C668.009 1303.18 663.502 1307.63 657.867 1307.63V1310.91C665.225 1310.91 671.286 1305.08 671.286 1297.82H668.009ZM657.867 1288C663.502 1288 668.009 1292.45 668.009 1297.82H671.286C671.286 1290.55 665.225 1284.73 657.867 1284.73V1288ZM546.859 1288H657.867V1284.73H546.859V1288ZM536.717 1297.82C536.717 1292.45 541.224 1288 546.859 1288V1284.73C539.502 1284.73 533.44 1290.55 533.44 1297.82H536.717ZM571.326 1351.43H682.334V1348.16H571.326V1351.43ZM561.184 1361.25C561.184 1355.88 565.692 1351.43 571.326 1351.43V1348.16C563.969 1348.16 557.907 1353.99 557.907 1361.25H561.184ZM571.326 1371.06C565.692 1371.06 561.184 1366.62 561.184 1361.25H557.907C557.907 1368.51 563.969 1374.34 571.326 1374.34V1371.06ZM626.469 1371.06H571.326V1374.34H626.469V1371.06ZM680.976 1349.04C659.266 1349.04 639.575 1357.64 625.325 1371.53L627.612 1373.87C641.267 1360.57 660.144 1352.32 680.976 1352.32V1349.04ZM687.608 1349.31C685.423 1349.13 683.212 1349.04 680.976 1349.04V1352.32C683.117 1352.32 685.24 1352.41 687.341 1352.58L687.608 1349.31ZM682.334 1351.43C683.911 1351.43 685.421 1351.79 686.776 1352.43L688.173 1349.46C686.393 1348.63 684.407 1348.16 682.334 1348.16V1351.43ZM571.326 1383.15H618.727V1379.87H571.326V1383.15ZM561.184 1392.96C561.184 1387.6 565.691 1383.15 571.326 1383.15V1379.87C563.969 1379.87 557.907 1385.7 557.907 1392.96H561.184ZM571.326 1402.78C565.691 1402.78 561.184 1398.33 561.184 1392.96H557.907C557.907 1400.23 563.969 1406.06 571.326 1406.06V1402.78ZM607.081 1402.78H571.326V1406.06H607.081V1402.78ZM617.416 1380.53C612.161 1387.53 608.095 1395.43 605.512 1403.94L608.649 1404.89C611.118 1396.75 615.005 1389.2 620.037 1382.5L617.416 1380.53ZM571.326 1414.87H605V1411.59H571.326V1414.87ZM561.184 1424.68C561.184 1419.31 565.691 1414.87 571.326 1414.87V1411.59C563.969 1411.59 557.907 1417.42 557.907 1424.68H561.184ZM571.326 1434.49C565.691 1434.49 561.184 1430.05 561.184 1424.68H557.907C557.907 1431.94 563.969 1437.77 571.326 1437.77V1434.49ZM604.721 1434.49H571.326V1437.77H604.721V1434.49ZM602.31 1425.56C602.31 1429.23 602.584 1432.84 603.099 1436.37L606.342 1435.9C605.849 1432.52 605.588 1429.07 605.588 1425.56H602.31ZM603.385 1412.95C602.682 1417.05 602.31 1421.27 602.31 1425.56H605.588C605.588 1421.45 605.943 1417.43 606.615 1413.5L603.385 1412.95ZM571.326 1466.21C565.691 1466.21 561.184 1461.76 561.184 1456.4H557.907C557.907 1463.66 563.969 1469.49 571.326 1469.49V1466.21ZM617.442 1466.21H571.326V1469.49H617.442V1466.21ZM604.991 1445.38C607.329 1453.85 611.126 1461.75 616.103 1468.79L618.78 1466.9C614.016 1460.16 610.385 1452.61 608.151 1444.51L604.991 1445.38ZM571.326 1446.58H606.571V1443.3H571.326V1446.58ZM561.184 1456.4C561.184 1451.03 565.691 1446.58 571.326 1446.58V1443.3C563.969 1443.3 557.907 1449.13 557.907 1456.4H561.184ZM680.976 1490C644.361 1490 614.65 1461.05 614.65 1425.56H611.372C611.372 1462.94 642.639 1493.27 680.976 1493.27V1490ZM747.301 1425.56C747.301 1461.05 717.59 1490 680.976 1490V1493.27C719.312 1493.27 750.579 1462.94 750.579 1425.56H747.301ZM680.976 1361.13C717.59 1361.13 747.301 1390.08 747.301 1425.56H750.579C750.579 1388.18 719.312 1357.85 680.976 1357.85V1361.13ZM614.65 1425.56C614.65 1390.08 644.361 1361.13 680.976 1361.13V1357.85C642.639 1357.85 611.372 1388.18 611.372 1425.56H614.65ZM680.953 1418.57C675.221 1418.57 671.056 1414.7 671.056 1410.5H667.779C667.779 1417.01 673.964 1421.85 680.953 1421.85V1418.57ZM704.616 1440.11C704.616 1428.08 693.842 1418.57 680.953 1418.57V1421.85C692.352 1421.85 701.338 1430.2 701.338 1440.11H704.616ZM686.552 1461.04C696.794 1458.77 704.616 1450.35 704.616 1440.11H701.338C701.338 1448.56 694.841 1455.85 685.842 1457.84L686.552 1461.04ZM687.836 1461.64V1459.44H684.558V1461.64H687.836ZM680.953 1468.38C684.71 1468.38 687.836 1465.41 687.836 1461.64H684.558C684.558 1463.51 682.988 1465.1 680.953 1465.1V1468.38ZM674.071 1461.64C674.071 1465.41 677.197 1468.38 680.953 1468.38V1465.1C678.919 1465.1 677.349 1463.51 677.349 1461.64H674.071ZM674.071 1459.44V1461.64H677.349V1459.44H674.071ZM657.292 1440.11C657.292 1450.35 665.114 1458.77 675.356 1461.04L676.065 1457.84C667.067 1455.85 660.569 1448.56 660.569 1440.11H657.292ZM664.174 1433.38C660.417 1433.38 657.292 1436.35 657.292 1440.11H660.569C660.569 1438.25 662.14 1436.65 664.174 1436.65V1433.38ZM671.056 1440.11C671.056 1436.35 667.931 1433.38 664.174 1433.38V1436.65C666.209 1436.65 667.779 1438.25 667.779 1440.11H671.056ZM680.953 1448.18C675.221 1448.18 671.056 1444.31 671.056 1440.11H667.779C667.779 1446.62 673.964 1451.46 680.953 1451.46V1448.18ZM690.85 1440.11C690.85 1444.31 686.686 1448.18 680.953 1448.18V1451.46C687.944 1451.46 694.128 1446.62 694.128 1440.11H690.85ZM680.953 1432.04C686.686 1432.04 690.85 1435.92 690.85 1440.11H694.128C694.128 1433.6 687.944 1428.77 680.953 1428.77V1432.04ZM657.292 1410.5C657.292 1422.53 668.065 1432.04 680.953 1432.04V1428.77C669.555 1428.77 660.569 1420.42 660.569 1410.5H657.292ZM675.356 1389.58C665.114 1391.85 657.292 1400.27 657.292 1410.5H660.569C660.569 1402.06 667.067 1394.77 676.065 1392.78L675.356 1389.58ZM674.071 1388.52V1391.18H677.349V1388.52H674.071ZM680.953 1381.79C677.197 1381.79 674.071 1384.76 674.071 1388.52H677.349C677.349 1386.66 678.919 1385.07 680.953 1385.07V1381.79ZM687.836 1388.52C687.836 1384.76 684.71 1381.79 680.953 1381.79V1385.07C682.988 1385.07 684.558 1386.66 684.558 1388.52H687.836ZM687.836 1391.18V1388.52H684.558V1391.18H687.836ZM704.616 1410.5C704.616 1400.27 696.794 1391.85 686.552 1389.58L685.842 1392.78C694.841 1394.77 701.338 1402.06 701.338 1410.5H704.616ZM697.733 1417.24C701.49 1417.24 704.616 1414.27 704.616 1410.5H701.338C701.338 1412.37 699.767 1413.96 697.733 1413.96V1417.24ZM690.85 1410.5C690.85 1414.27 693.976 1417.24 697.733 1417.24V1413.96C695.699 1413.96 694.128 1412.37 694.128 1410.5H690.85ZM680.953 1402.44C686.686 1402.44 690.85 1406.31 690.85 1410.5H694.128C694.128 1403.99 687.944 1399.16 680.953 1399.16V1402.44ZM671.056 1410.5C671.056 1406.31 675.221 1402.44 680.953 1402.44V1399.16C673.964 1399.16 667.779 1403.99 667.779 1410.5H671.056Z" fill="#FF872C"/>
<path d="M420 1570.11C420 1583.17 428.979 1592 440.659 1592C448.605 1592 454.247 1587.93 456.869 1583.4V1592.23C456.869 1601.22 451.068 1605.98 443.361 1605.98C436.21 1605.98 431.045 1602.53 429.456 1597.46H422.304C423.735 1606.45 431.919 1612.05 443.361 1612.05C456.154 1612.05 464.179 1603.83 464.179 1592.23V1549.21H456.869V1556.89C454.326 1552.36 448.605 1548.52 440.659 1548.52C428.979 1548.52 420 1556.97 420 1570.11ZM456.869 1570.18C456.869 1580.09 450.035 1585.86 442.089 1585.86C434.144 1585.86 427.39 1580.02 427.39 1570.11C427.39 1560.2 434.144 1554.59 442.089 1554.59C450.035 1554.59 456.869 1560.43 456.869 1570.18Z" fill="white"/>
<path d="M517.717 1570.18C517.717 1556.89 508.102 1548.52 495.707 1548.52C483.39 1548.52 473.697 1556.89 473.697 1570.18C473.697 1583.55 483.073 1592 495.389 1592C507.784 1592 517.717 1583.55 517.717 1570.18ZM481.086 1570.18C481.086 1559.58 487.999 1554.59 495.627 1554.59C503.096 1554.59 510.327 1559.58 510.327 1570.18C510.327 1580.86 502.937 1585.86 495.389 1585.86C487.84 1585.86 481.086 1580.86 481.086 1570.18Z" fill="white"/>
<path d="M531.382 1591.31H540.52V1556.12H548.624V1548.98H540.52V1545.98C540.52 1541.14 542.427 1539.3 547.989 1539.3V1532C536.547 1532 531.382 1536.23 531.382 1545.98V1548.98H526.217V1556.12H531.382V1591.31Z" fill="white"/>
<path d="M556.652 1591.31H565.711V1548.98H556.652V1591.31ZM561.261 1543.37C564.439 1543.37 566.982 1540.91 566.982 1537.76C566.982 1534.61 564.439 1532.15 561.261 1532.15C558.003 1532.15 555.46 1534.61 555.46 1537.76C555.46 1540.91 558.003 1543.37 561.261 1543.37Z" fill="white"/>
<path d="M608.671 1591.31H617.65V1566.34C617.65 1554.51 609.943 1548.29 599.693 1548.29C594.448 1548.29 589.601 1550.36 586.661 1553.82V1548.98H577.603V1591.31H586.661V1567.65C586.661 1559.89 591.032 1555.89 597.706 1555.89C604.301 1555.89 608.671 1559.89 608.671 1567.65V1591.31Z" fill="white"/>
<path d="M626.185 1569.95C626.185 1583.01 635.323 1592 646.686 1592C653.996 1592 659.24 1588.62 662.021 1585.01V1591.31H671.159V1548.98H662.021V1555.13C659.319 1551.67 654.234 1548.29 646.844 1548.29C635.323 1548.29 626.185 1556.89 626.185 1569.95ZM662.021 1570.11C662.021 1579.25 655.585 1584.4 648.751 1584.4C641.997 1584.4 635.482 1579.1 635.482 1569.95C635.482 1560.81 641.997 1555.89 648.751 1555.89C655.585 1555.89 662.021 1561.04 662.021 1570.11Z" fill="white"/>
<path d="M714.125 1591.31H723.103V1566.34C723.103 1554.51 715.396 1548.29 705.146 1548.29C699.902 1548.29 695.055 1550.36 692.115 1553.82V1548.98H683.056V1591.31H692.115V1567.65C692.115 1559.89 696.485 1555.89 703.159 1555.89C709.754 1555.89 714.125 1559.89 714.125 1567.65V1591.31Z" fill="white"/>
<path d="M731.638 1570.11C731.638 1583.4 740.538 1592 753.092 1592C763.819 1592 770.811 1586.24 773.275 1577.94H763.501C761.833 1582.32 758.495 1584.63 753.092 1584.63C745.782 1584.63 740.935 1579.4 740.935 1570.11C740.935 1560.89 745.782 1555.66 753.092 1555.66C758.495 1555.66 761.992 1558.28 763.501 1562.35H773.275C770.811 1553.43 763.819 1548.29 753.092 1548.29C740.538 1548.29 731.638 1556.89 731.638 1570.11Z" fill="white"/>
<path d="M800.736 1555.66C807.49 1555.66 812.814 1559.81 812.973 1566.34H788.738C789.691 1559.66 794.618 1555.66 800.736 1555.66ZM821.236 1578.71H811.463C809.794 1582.01 806.696 1584.63 801.133 1584.63C794.459 1584.63 789.294 1580.4 788.659 1573.41H822.111C822.349 1571.95 822.428 1570.57 822.428 1569.11C822.428 1556.66 813.608 1548.29 801.133 1548.29C788.182 1548.29 779.282 1556.82 779.282 1570.11C779.282 1583.4 788.579 1592 801.133 1592C811.86 1592 818.773 1586.09 821.236 1578.71Z" fill="white"/>
<path d="M864 1579.48C863.523 1564.19 838.812 1568.95 838.812 1560.43C838.812 1557.58 841.354 1555.66 846.201 1555.66C851.128 1555.66 854.068 1558.2 854.386 1561.89H863.444C862.967 1553.43 856.451 1548.29 846.519 1548.29C836.19 1548.29 829.674 1553.74 829.674 1560.5C829.674 1576.02 855.101 1571.26 855.101 1579.56C855.101 1582.48 852.32 1584.63 847.075 1584.63C842.07 1584.63 838.653 1581.78 838.335 1578.33H828.959C829.356 1586.01 836.746 1592 847.234 1592C857.564 1592 864 1586.62 864 1579.48Z" fill="white"/>
</svg>
